<?xml version="1.0" encoding="utf-8"?>
<!-- Generator: Adobe Illustrator 22.1.0, SVG Export Plug-In . SVG Version: 6.00 Build 0)  -->
<svg version="1.1" id="Layer_1" xmlns="http://www.w3.org/2000/svg" xmlns:xlink="http://www.w3.org/1999/xlink" x="0px" y="0px"
	 viewBox="0 0 800 480" style="enable-background:new 0 0 800 480;" xml:space="preserve">
<style type="text/css">
	.st0{fill:#FFFFFF;}
	.st1{fill:#2A2A2A;}
</style>
<rect y="0" class="st0" width="800" height="480"/>
<g>
	<g>
		<path class="st1" d="M263.4,264.3h55V281h-36v11.7H315v15.8h-32.5v24.6h-19.1V264.3z"/>
		<path class="st1" d="M327.2,264.3h19.1v52.1h33.3v16.7h-52.4V264.3z"/>
		<path class="st1" d="M411.7,263.8H430l29.3,69.3h-20.4l-4.9-12.4h-26.6l-4.9,12.4h-20L411.7,263.8z M428.4,305.8l-7.7-19.5
			l-7.8,19.5H428.4z"/>
		<path class="st1" d="M459.3,298.9v-0.2c0-20.1,15.7-35.8,37-35.8c12.1,0,20.6,3.6,27.9,9.9L513,286.4c-4.9-4.1-9.7-6.5-16.6-6.5
			c-9.9,0-17.6,8.3-17.6,18.8v0.2c0,11.2,7.8,19.2,18.7,19.2c4.7,0,8.3-1,11-2.9v-8.4H495v-14h31.6v30.9
			c-7.3,6.1-17.3,10.7-29.9,10.7C475.2,334.4,459.3,319.7,459.3,298.9z"/>
	</g>
	<g>
		<path class="st1" d="M216.8,201.2V201c0-19.6,15.8-35.5,36.8-35.5s36.6,15.7,36.6,35.3v0.2c0,19.6-15.8,35.5-36.8,35.5
			S216.8,220.8,216.8,201.2z M270.9,201.2V201c0-9.9-7-18.4-17.4-18.4c-10.4,0-17.3,8.4-17.3,18.2v0.2c0,9.8,7.1,18.4,17.5,18.4
			C264,219.4,270.9,211.1,270.9,201.2z"/>
		<path class="st1" d="M316.2,183.5h-20.4v-16.6h59.7v16.6h-20.5v51.6h-18.9V183.5z"/>
		<path class="st1" d="M366.3,166.9h18.9v25.5h24.3v-25.5h18.9v68.2h-18.9v-25.9h-24.3v25.9h-18.9V166.9z"/>
		<path class="st1" d="M442.9,166.9h54.9v16h-36.2v10.4h32.7v14.9h-32.7v10.8h36.6v16.1h-55.4V166.9z"/>
		<path class="st1" d="M510.4,166.9h32.3c10.4,0,17.6,2.7,22.2,7.3c4,4,6,9.2,6,15.9v0.2c0,10.5-5.6,17.4-14,21l16.3,23.8h-21.7
			l-13.7-20.7h-8.4v20.7h-18.9V166.9z M541.9,199.7c6.3,0,10.1-3.1,10.1-8.1v-0.2c0-5.5-4-8.2-10.2-8.2h-12.5v16.5H541.9z"/>
	</g>
</g>
</svg>
