<?xml version="1.0" encoding="utf-8"?>
<!-- Generator: Adobe Illustrator 22.1.0, SVG Export Plug-In . SVG Version: 6.00 Build 0)  -->
<svg version="1.1" id="Layer_1" xmlns="http://www.w3.org/2000/svg" xmlns:xlink="http://www.w3.org/1999/xlink" x="0px" y="0px"
	 viewBox="0 0 1024 688.4" style="enable-background:new 0 0 1024 688.4;" xml:space="preserve">
<style type="text/css">
	.st0{fill:#47BCEC;}
	.st1{fill:#FFFFFF;}
	.st2{fill:#2A2A2A;}
</style>
<g>
	<path class="st0" d="M899.5,229.4l51-51v51v154.5c0,13.2-10.7,23.8-23.8,23.8H91.9c-13.2,0-23.8-10.7-23.8-23.8V253.2
		c0-13.2,10.7-23.8,23.8-23.8H899.5z"/>
	<path class="st1" d="M0,178.3V23.8C0,10.7,10.7,0,23.8,0h517.5c13.2,0,23.8,10.7,23.8,23.8v130.7c0,13.2-10.7,23.8-23.8,23.8H51
		l-51,51V178.3z"/>
	<g>
		<path class="st1" d="M142.9,280.4H164v57.7h36.9v18.5h-58V280.4z"/>
		<path class="st1" d="M246.1,279.8h20.4l32.4,76.7h-22.6l-5.6-13.6h-29.4l-5.4,13.6h-22.2L246.1,279.8z M264.6,326.5l-8.5-21.7
			l-8.6,21.7H264.6z"/>
		<path class="st1" d="M316.1,280.4h22.3l18.2,29.5l18.2-29.5h22.3v76.2h-21v-43.8l-19.5,29.8h-0.4L336.8,313v43.5h-20.7
			L316.1,280.4L316.1,280.4z"/>
		<path class="st1" d="M420.4,280.4H453c19.3,0,31.7,9.9,31.7,26.8v0.2c0,18-13.8,27.4-32.8,27.4h-10.4v21.8h-21.1L420.4,280.4
			L420.4,280.4z M451.5,318.3c7.5,0,12.1-3.9,12.1-9.9v-0.2c0-6.5-4.6-10-12.2-10h-9.9v20.1H451.5z"/>
		<path class="st1" d="M543.4,280.4H576c19.3,0,31.7,9.9,31.7,26.8v0.2c0,18-13.8,27.4-32.8,27.4h-10.5v21.8h-21.1L543.4,280.4
			L543.4,280.4z M574.5,318.3c7.5,0,12.1-3.9,12.1-9.9v-0.2c0-6.5-4.6-10-12.2-10h-9.9v20.1H574.5z"/>
		<path class="st1" d="M623.8,318.7v-0.2c0-21.9,17.6-39.6,41.1-39.6s40.9,17.5,40.9,39.4v0.2c0,21.9-17.6,39.6-41.1,39.6
			S623.8,340.6,623.8,318.7z M684.4,318.7v-0.2c0-11-7.9-20.6-19.6-20.6c-11.5,0-19.3,9.4-19.3,20.4v0.2c0,11,7.9,20.6,19.5,20.6
			C676.6,339,684.4,329.7,684.4,318.7z"/>
		<path class="st1" d="M720.9,345.3l11.8-14c7.5,6,15.9,9.1,24.7,9.1c5.7,0,8.7-2,8.7-5.2V335c0-3.2-2.5-4.9-12.8-7.3
			c-16.2-3.7-28.7-8.3-28.7-23.9v-0.2c0-14.2,11.2-24.4,29.5-24.4c13,0,23.1,3.5,31.4,10.1l-10.6,14.9c-7-4.9-14.6-7.5-21.3-7.5
			c-5.1,0-7.6,2.2-7.6,4.9v0.2c0,3.5,2.6,5,13.2,7.4c17.5,3.8,28.4,9.5,28.4,23.7v0.2c0,15.6-12.3,24.8-30.8,24.8
			C743.1,357.9,730.3,353.6,720.9,345.3z"/>
		<path class="st1" d="M826.1,298.9h-22.9v-18.5H870v18.5h-22.9v57.7H826L826.1,298.9L826.1,298.9z"/>
	</g>
	<g>
		<path class="st2" d="M74.8,51h21.1v28.5H123V51h21.1v76.2H123v-29H95.9v29H74.8V51z"/>
		<path class="st2" d="M167.4,51h61.3v18h-40.4v11.5h36.6v16.7h-36.6v12.1h40.9v18h-61.8L167.4,51L167.4,51z"/>
		<path class="st2" d="M249.9,51H271v57.7h36.9v18.5h-58V51z"/>
		<path class="st2" d="M326.7,51h21.1v57.7h36.9v18.5h-58V51z"/>
		<path class="st2" d="M401,89.3v-0.2c0-21.9,17.6-39.6,41.1-39.6S483,67,483,88.9v0.2c0,21.9-17.6,39.6-41.1,39.6
			S401,111.2,401,89.3z M461.5,89.3v-0.2c0-11-7.9-20.6-19.6-20.6c-11.5,0-19.3,9.4-19.3,20.4v0.2c0,11,7.9,20.6,19.5,20.6
			C453.8,109.7,461.5,100.3,461.5,89.3z"/>
	</g>
	<path class="st1" d="M1024,637.3V482.8c0-13.2-10.7-23.8-23.8-23.8H255.4c-13.2,0-23.8,10.7-23.8,23.8v130.7
		c0,13.2,10.7,23.8,23.8,23.8H973l51,51V637.3z"/>
	<g>
		<path class="st2" d="M293.8,550v-0.2c0-22,17-39.3,39.9-39.3c15.5,0,25.4,6.5,32.1,15.8L350,538.5c-4.3-5.4-9.3-8.9-16.5-8.9
			c-10.6,0-18,9-18,20v0.2c0,11.3,7.5,20.2,18,20.2c7.9,0,12.5-3.7,17.1-9.2l15.8,11.2c-7.1,9.8-16.7,17.1-33.5,17.1
			C311.2,589.1,293.8,572.6,293.8,550z"/>
		<path class="st2" d="M378.4,512h21.1v75.6h-21.1V512z"/>
		<path class="st2" d="M434.5,530.4h-22.7V512h66.3v18.4h-22.7v57.3h-21V530.4z"/>
		<path class="st2" d="M511.8,559.3L483.1,512H507l15.6,27.6l15.7-27.6h23.4l-28.7,47v28.6h-21.1V559.3z"/>
		<path class="st2" d="M603.5,512H623l31.1,40v-40h20.7v75.6h-18.4l-32.3-41.5v41.5h-20.7V512z"/>
		<path class="st2" d="M717.1,511.5h20.2l32.2,76.2H747l-5.5-13.5h-29.2l-5.4,13.5h-22L717.1,511.5z M735.5,557.8l-8.4-21.5
			l-8.5,21.5H735.5z"/>
		<path class="st2" d="M779.6,512h22.1l18,29.3l18-29.3h22.1v75.6h-20.9v-43.4l-19.3,29.6h-0.4l-19.2-29.4v43.2h-20.5V512z"/>
		<path class="st2" d="M876,512h60.8v17.8h-40.1v11.5h36.3v16.5h-36.3v12h40.6v17.8H876V512z"/>
	</g>
</g>
</svg>
